<svg xmlns="http://www.w3.org/2000/svg" viewBox="0 0 40 40"><defs><style>.cls-1{fill:#bea7f9;}.cls-2{fill:#7c5ae8;}.cls-3{fill:#4f24e0;}</style></defs><title>resources_documentation</title><g id="Ebene_2" data-name="Ebene 2"><g id="Bg"><circle class="cls-1" cx="20" cy="20" r="20"/><path class="cls-2" d="M24.75,24.26h5.09V11.64A1.8,1.8,0,0,0,28,9.84H13.54a1.81,1.81,0,0,0-1.8,1.8V29a1.8,1.8,0,0,0,1.8,1.8H23V26.06A1.79,1.79,0,0,1,24.75,24.26Z"/><path class="cls-3" d="M23,30.78V26.06a1.79,1.79,0,0,1,1.79-1.8h5.09Z"/><rect class="cls-1" x="15.69" y="13.64" width="10.71" height="2.45" rx="1.22" ry="1.22"/><rect class="cls-1" x="15.69" y="18.81" width="10.71" height="2.45" rx="1.22" ry="1.22"/></g></g></svg>