<svg xmlns="http://www.w3.org/2000/svg" viewBox="0 0 40 40"><defs><style>.cls-1{fill:#bea7f9;}.cls-2{fill:#4f24e0;}</style></defs><title>resources_github</title><g id="Ebene_2" data-name="Ebene 2"><g id="Bg"><circle class="cls-1" cx="20" cy="20" r="20"/><path class="cls-2" d="M10.82,16.14a9.73,9.73,0,0,1,.86-5.32s1.89.12,5.55,2.34a17.32,17.32,0,0,1,6-.06s3.38-2.3,5.16-2.36c0,0,1,1.62,1,5.36,0,0,1.84,1.74,1.66,5.53s-1.72,7.65-10.79,7.63S9.11,25.6,9,21.57A8.27,8.27,0,0,1,10.82,16.14Z"/><path class="cls-1" d="M20,26.31c-1-.06-2.07-.08-3.1-.17A14.77,14.77,0,0,1,15,25.77a4.6,4.6,0,0,1-1.92-1,3.59,3.59,0,0,1-1-1.62,5.53,5.53,0,0,1-.27-2.32A3.69,3.69,0,0,1,13,18.39a3.23,3.23,0,0,1,1.82-.81,9.27,9.27,0,0,1,2,0,31,31,0,0,0,3.61.15c1,0,2.07-.11,3.1-.17a6.7,6.7,0,0,1,2.23.19A3.19,3.19,0,0,1,27.48,19a4.11,4.11,0,0,1,.66,3.26,5.71,5.71,0,0,1-.21.93A3.49,3.49,0,0,1,26.59,25a5.63,5.63,0,0,1-2,.87A21.82,21.82,0,0,1,20,26.31Zm5.45-4.93a2.25,2.25,0,0,0-.78-1.65,1.26,1.26,0,0,0-1.47-.06,1.93,1.93,0,0,0-.77,1.16,2.7,2.7,0,0,0,.44,2.47,1.23,1.23,0,0,0,.71.47,1.31,1.31,0,0,0,1.34-.49A2.78,2.78,0,0,0,25.44,21.38Zm-7.75.2A2.45,2.45,0,0,0,17.15,20a1.23,1.23,0,0,0-.73-.48,1.32,1.32,0,0,0-1.46.68,2.56,2.56,0,0,0-.39,1.71,2.38,2.38,0,0,0,.6,1.48,1.27,1.27,0,0,0,2-.09A2.53,2.53,0,0,0,17.69,21.58Z"/></g></g></svg>