<svg xmlns="http://www.w3.org/2000/svg" viewBox="0 0 40 40"><defs><style>.cls-1{fill:#a7e8fc;}.cls-2{fill:#009dea;}.cls-3{fill:#1eb8ff;}</style></defs><title>features_ab</title><g id="Ebene_2" data-name="Ebene 2"><g id="Symbole"><circle class="cls-1" cx="20" cy="20" r="20"/><path class="cls-2" d="M14.33,18.92A3.69,3.69,0,1,1,18,15.24a3.69,3.69,0,0,1-3.69,3.68Z"/><path class="cls-2" d="M14.33,19.84c4.07,0,7.37,3.89,7.37,5.65v.8a.92.92,0,0,1-.92.93H7.88A.93.93,0,0,1,7,26.29v-.8c0-2,3.3-5.65,7.37-5.65Z"/><path class="cls-3" d="M24.48,19.29a4.45,4.45,0,1,1,4.45-4.45,4.45,4.45,0,0,1-4.45,4.45Z"/><path class="cls-3" d="M24.48,20.4c4.91,0,8.89,4.68,8.89,6.8v1a1.1,1.1,0,0,1-1.11,1.11H16.7a1.11,1.11,0,0,1-1.11-1.11v-1c0-2.4,4-6.8,8.89-6.8Z"/></g></g></svg>