<svg xmlns="http://www.w3.org/2000/svg" viewBox="0 0 40 40"><defs><style>.cls-1{fill:#a7e8fc;}.cls-2{fill:#1eb8ff;}.cls-3{fill:#009dea;}</style></defs><title>features_performance</title><g id="Ebene_2" data-name="Ebene 2"><g id="Symbole"><circle class="cls-1" cx="20" cy="20" r="20"/><path class="cls-2" d="M10.29,20.32h3.24a.77.77,0,0,1,.81.74v8.15a.78.78,0,0,1-.81.74H10.29a.78.78,0,0,1-.81-.74V21.06A.77.77,0,0,1,10.29,20.32Z"/><path class="cls-3" d="M17.58,14.32h3.24a.78.78,0,0,1,.81.76v14.1a.79.79,0,0,1-.81.77H17.58a.79.79,0,0,1-.81-.77V15.08A.78.78,0,0,1,17.58,14.32Z"/><path class="cls-3" d="M24.87,10h3.25a.84.84,0,0,1,.81.85V29.1a.84.84,0,0,1-.81.85H24.87a.84.84,0,0,1-.81-.85V10.85A.84.84,0,0,1,24.87,10Z"/></g></g></svg>