<svg xmlns="http://www.w3.org/2000/svg" viewBox="0 0 40 40"><defs><style>.cls-1{fill:#a7e8fc;}.cls-2{fill:#1eb8ff;}.cls-3{fill:#009dea;}.cls-4{fill:#8bd9ff;}</style></defs><title>features_custom</title><g id="Ebene_2" data-name="Ebene 2"><g id="Symbole"><circle class="cls-1" cx="20" cy="20" r="20"/><path class="cls-2" d="M17.28,22.56H30.42a2,2,0,0,1,2,2v1.27a2,2,0,0,1-2,2H17.28a0,0,0,0,1,0,0V22.56A0,0,0,0,1,17.28,22.56Z" transform="translate(28.34 -10.02) rotate(50.25)"/><path class="cls-3" d="M18,15h3.18a0,0,0,0,1,0,0v5.29a0,0,0,0,1,0,0H18a2,2,0,0,1-2-2V17A2,2,0,0,1,18,15Z" transform="translate(20.25 -7.91) rotate(50.25)"/><rect class="cls-4" x="12.17" y="8.52" width="2.04" height="5.36" rx="1.02" ry="1.02" transform="translate(-4.12 11.02) rotate(-39.75)"/><rect class="cls-4" x="9.51" y="15.51" width="2.04" height="5.36" rx="1.02" ry="1.02" transform="translate(-8.53 27.04) rotate(-84.87)"/><rect class="cls-4" x="12.45" y="21.74" width="2.04" height="5.36" rx="1.02" ry="1.02" transform="translate(8.57 51.88) rotate(-141.02)"/><rect class="cls-4" x="25.01" y="12.42" width="2.04" height="5.36" rx="1.02" ry="1.02" transform="translate(23.24 45.05) rotate(-114.8)"/><rect class="cls-4" x="19.94" y="7.61" width="2.04" height="5.36" rx="1.02" ry="1.02" transform="translate(3.76 -5.5) rotate(16.39)"/></g></g></svg>