<svg xmlns="http://www.w3.org/2000/svg" viewBox="0 0 40 40"><defs><style>.cls-1{fill:#a7e8fc;}.cls-2{fill:#1eb8ff;}</style></defs><title>features_implement</title><g id="Ebene_2" data-name="Ebene 2"><g id="Symbole"><circle class="cls-1" cx="20" cy="20" r="20"/><path class="cls-2" d="M14.7,26.77a9,9,0,0,1-1.84-2.19l-2.63.23a.94.94,0,0,1-1-.59c-.14-.38-.26-.77-.37-1.16a.94.94,0,0,1,.46-1l2.28-1.33a7.6,7.6,0,0,1,0-1.43,9.35,9.35,0,0,1,.23-1.42l-2-1.69A.94.94,0,0,1,9.59,15c.17-.37.36-.73.56-1.08a.93.93,0,0,1,1-.41l2.55.67a9.44,9.44,0,0,1,2.19-1.84l-.23-2.62a1,1,0,0,1,.6-1c.37-.14.76-.26,1.16-.37a1,1,0,0,1,1,.45l1.32,2.28a9.91,9.91,0,0,1,1.44,0,10.92,10.92,0,0,1,1.41.24l1.7-2a.93.93,0,0,1,1.1-.26,11,11,0,0,1,1.08.56A1,1,0,0,1,27,10.73l-.68,2.55a9,9,0,0,1,1.84,2.19l2.63-.23a.94.94,0,0,1,1,.59A9.76,9.76,0,0,1,32.1,17,1,1,0,0,1,31.65,18l-2.28,1.32a8.54,8.54,0,0,1,0,1.43,8.26,8.26,0,0,1-.24,1.42l2,1.7a.94.94,0,0,1,.27,1.1c-.17.37-.36.73-.56,1.08a1,1,0,0,1-1.06.42l-2.55-.68a8.82,8.82,0,0,1-2.19,1.84l.23,2.63a.93.93,0,0,1-.59,1,12,12,0,0,1-1.16.37.93.93,0,0,1-1-.45L21.16,28.9a9.76,9.76,0,0,1-1.43,0,8.26,8.26,0,0,1-1.42-.24l-1.69,2a1,1,0,0,1-1.1.27,10.23,10.23,0,0,1-1.09-.57A.93.93,0,0,1,14,29.32l.68-2.55Zm5.39-2.07a4.69,4.69,0,1,0-4.27-5.08,4.7,4.7,0,0,0,4.27,5.08Z"/></g></g></svg>